<svg xmlns="http://www.w3.org/2000/svg"  viewBox="0 0 333333 333333" shape-rendering="geometricPrecision" text-rendering="geometricPrecision" image-rendering="optimizeQuality" fill-rule="evenodd" clip-rule="evenodd"><path fill="#f7df1e" d="M0 0h333333v333333H0z"/><path d="M87646 278557l25508-15437c4922 8725 9398 16108 20137 16108 10293 0 16784-4026 16784-19688V153032h31324v106951c0 32444-19019 47212-46766 47212-25059 0-39604-12978-46988-28641m110768-3354l25505-14767c6715 10965 15442 19020 30879 19020 12980 0 21256-6490 21256-15440 0-10740-8502-14544-22823-20807l-7830-3359c-22600-9619-37591-21702-37591-47209 0-23495 17900-41396 45870-41396 19914 0 34235 6938 44526 25061l-24391 15664c-5371-9621-11186-13424-20137-13424-9174 0-14992 5818-14992 13424 0 9397 5818 13203 19242 19021l7831 3356c26628 11413 41619 23047 41619 49224 0 28195-22151 43633-51910 43633-29087 0-47883-13872-57056-31997m1-2z"/></svg>