<svg xmlns="http://www.w3.org/2000/svg" viewBox="0 0 333333 168926" shape-rendering="geometricPrecision" text-rendering="geometricPrecision" image-rendering="optimizeQuality" fill-rule="evenodd" clip-rule="evenodd"><path d="M166667 168926c92046 0 166667-37816 166667-84463S258714 0 166667 0C74621 0 0 37816 0 84463s74620 84463 166667 84463zM277211 53568c-5418-6201-13988-9346-25472-9346h-35800c-1213 0-2256 859-2487 2050l-16611 85463c-144 743 51 1511 532 2094s1198 922 1955 922h18617c1212 0 2255-860 2485-2050l4019-20672h13858c7274 0 13381-788 18152-2342 4878-1585 9366-4275 13323-7979 3300-3033 6017-6438 8074-10119 2054-3677 3531-7781 4389-12197 2117-10889 423-19578-5034-25825zm-78987 56412l7728-39770c1743-8976 293-15673-4310-19903-4458-4094-12027-6084-23139-6084h-13382l3830-19706c144-743-51-1511-532-2094-482-583-1199-922-1955-922h-18470c-1213 0-2255 859-2487 2050l-8206 42222c-747-4750-2585-8835-5528-12204-5417-6201-13987-9346-25472-9346H70501c-1212 0-2255 859-2486 2050l-16611 85463c-144 743 51 1511 532 2094s1198 922 1955 922h18617c1213 0 2255-860 2486-2050l4018-20672h13858c7274 0 13381-788 18152-2342 4878-1585 9366-4275 13323-7979 3196-2938 5839-6226 7871-9774l-3319 17078c-144 743 51 1511 532 2094s1198 922 1955 922h18470c1213 0 2255-860 2487-2050l9117-46912h12674c5401 0 6981 1076 7411 1538 391 422 1203 1908 293 6594l-7348 37814c-144 743 51 1511 532 2094s1198 922 1954 922h18764c1212 0 2255-860 2487-2050zm-85631-32860c-1160 5961-3346 10214-6498 12641-3203 2466-8325 3716-15226 3716h-8251l5967-30702h10668c7837 0 10995 1676 12263 3080 1757 1949 2130 5845 1078 11265zm145310 0c-1160 5961-3346 10214-6498 12641-3203 2466-8326 3716-15226 3716h-8252l5967-30702h10667c7837 0 10995 1676 12263 3080 1757 1949 2130 5845 1078 11265z" fill="#6884ba"/><path d="M244561 60242c7073 0 11787 1306 14144 3917 2355 2611 2916 7093 1683 13445-1287 6615-3765 11336-7439 14165s-9265 4242-16770 4242h-11324l6951-35769h12756zm-96567-36208h18470l-4416 22722h16455c10353 0 17495 1807 21425 5417 3931 3612 5108 9464 3537 17554l-7728 39770h-18764l7348-37814c836-4301 529-7236-923-8800-1452-1565-4542-2348-9267-2348h-14762l-9515 48962h-18470l16611-85463zM99251 60242c7073 0 11787 1306 14143 3917 2355 2611 2916 7093 1684 13445-1287 6615-3766 11336-7440 14165s-9265 4242-16771 4242H79543l6952-35769h12756zm-45361 71977h18617l4416-22722h15946c7037 0 12824-738 17369-2218 4544-1477 8674-3956 12391-7435 3120-2867 5644-6030 7577-9489 1931-3456 3303-7272 4114-11445 1970-10131 483-18022-4455-23675s-12795-8479-23565-8479H70500l-16611 85463zm145311 0h18617l4415-22722h15946c7037 0 12824-738 17369-2218 4544-1477 8674-3956 12391-7435 3120-2867 5644-6030 7577-9489 1931-3456 3303-7272 4114-11445 1970-10131 484-18022-4455-23675-4938-5653-12794-8479-23565-8479h-35800l-16610 85463z" fill="#1b1d23"/></svg>